<?xml version="1.0" standalone="no"?>
<!DOCTYPE svg PUBLIC "-//W3C//DTD SVG 20010904//EN"
 "http://www.w3.org/TR/2001/REC-SVG-20010904/DTD/svg10.dtd">
<svg version="1.0" xmlns="http://www.w3.org/2000/svg"
 width="512.000000pt" height="512.000000pt" viewBox="0 0 512.000000 512.000000"
 preserveAspectRatio="xMidYMid meet">

<g transform="translate(0.000000,512.000000) scale(0.100000,-0.100000)"
fill="#8461c5" stroke="none">
<path d="M214 5106 c-97 -31 -181 -123 -203 -224 -16 -75 -16 -4568 0 -4644
22 -103 114 -201 214 -227 28 -8 729 -11 2295 -11 2500 0 2319 -5 2426 66 189
125 225 388 79 563 l-27 31 27 31 c40 49 72 119 85 187 19 105 -15 227 -85
311 l-27 31 27 31 c40 49 72 119 85 187 19 105 -15 227 -85 311 l-27 31 27 31
c146 175 110 438 -79 563 -99 66 -115 67 -673 64 -494 -3 -498 -3 -555 -26
-81 -33 -160 -108 -200 -190 -30 -61 -33 -74 -33 -162 0 -81 4 -103 26 -150
14 -31 41 -73 59 -93 l32 -37 -32 -37 c-18 -20 -45 -62 -59 -93 -22 -47 -26
-69 -26 -150 0 -81 4 -103 26 -150 14 -31 41 -73 59 -93 l32 -37 -32 -37 c-18
-20 -45 -62 -59 -93 -22 -47 -26 -69 -26 -150 0 -81 4 -103 26 -150 14 -31 41
-73 59 -93 l32 -37 -32 -37 c-94 -106 -114 -265 -54 -411 5 -10 -317 -12
-1625 -10 l-1631 3 -27 28 -28 27 0 2300 0 2300 28 27 27 28 1435 3 1434 2 3
-337 3 -338 26 -56 c31 -66 84 -120 148 -151 45 -22 55 -23 389 -26 l342 -3 0
-413 c0 -269 4 -424 11 -444 23 -66 109 -84 160 -33 l29 29 0 492 c0 407 -2
496 -14 518 -22 42 -927 940 -959 951 -45 17 -2999 14 -3053 -3z m3401 -616
l280 -280 -247 0 -248 0 -32 29 -33 29 -3 251 c-2 138 -2 251 0 251 2 0 129
-126 283 -280z m1203 -2271 c131 -64 131 -254 0 -318 -43 -20 -56 -21 -516
-21 -501 0 -513 1 -565 48 -31 28 -57 88 -57 132 0 44 26 104 57 132 51 46 61
47 562 48 464 0 476 0 519 -21z m0 -560 c131 -64 131 -254 0 -318 -43 -20 -56
-21 -516 -21 -501 0 -513 1 -565 48 -31 28 -57 88 -57 132 0 44 26 104 57 132
51 46 61 47 562 48 464 0 476 0 519 -21z m0 -560 c131 -64 131 -254 0 -318
-43 -20 -56 -21 -516 -21 -501 0 -513 1 -565 48 -31 28 -57 88 -57 132 0 44
26 104 57 132 51 46 61 47 562 48 464 0 476 0 519 -21z m0 -560 c131 -64 131
-254 0 -318 -43 -20 -56 -21 -516 -21 -501 0 -513 1 -565 48 -31 28 -57 88
-57 132 0 44 26 104 57 132 51 46 61 47 562 48 464 0 476 0 519 -21z"/>
<path d="M772 3895 c-38 -32 -46 -65 -28 -110 21 -49 63 -65 170 -65 l85 0 3
-396 3 -396 28 -24 c30 -26 83 -32 118 -14 47 26 49 44 49 450 l0 380 85 0
c106 0 150 16 169 62 19 44 10 83 -26 113 l-30 25 -298 0 -298 0 -30 -25z"/>
<path d="M2523 3910 c-12 -5 -29 -21 -39 -35 -30 -47 -15 -87 114 -289 l119
-188 -123 -196 c-136 -215 -144 -237 -99 -290 30 -35 69 -45 111 -27 23 10 52
46 119 151 48 77 94 147 100 157 11 15 24 -2 110 -139 80 -127 105 -159 132
-170 63 -27 133 16 133 81 0 45 1 42 -131 252 -60 94 -109 176 -109 180 0 5
54 94 120 198 99 157 120 197 120 228 0 79 -91 125 -152 78 -14 -11 -62 -80
-108 -153 -46 -73 -89 -139 -95 -146 -10 -11 -30 16 -104 132 -50 80 -103 154
-118 166 -27 21 -63 25 -100 10z"/>
<path d="M1853 3883 c-23 -26 -348 -773 -379 -871 -24 -77 16 -134 93 -134 49
0 80 34 119 129 l32 78 203 0 202 0 33 -80 c42 -98 69 -127 118 -127 76 0 119
63 92 138 -7 21 -91 221 -185 444 -117 276 -180 412 -197 428 -37 33 -99 31
-131 -5z m120 -445 c25 -62 49 -121 53 -130 6 -17 -3 -18 -106 -18 -96 0 -111
2 -106 15 31 82 102 245 107 245 3 0 26 -51 52 -112z"/>
<path d="M4083 2852 c-49 -39 -49 -122 0 -157 62 -43 157 5 157 80 0 76 -97
124 -157 77z"/>
<path d="M795 2411 c-60 -25 -79 -110 -35 -156 61 -65 170 -23 170 65 0 70
-70 117 -135 91z"/>
<path d="M1215 2411 c-64 -27 -81 -110 -32 -158 l27 -28 788 -3 c579 -2 794 1
815 9 30 13 57 55 57 89 0 33 -26 75 -55 88 -30 14 -1566 16 -1600 3z"/>
<path d="M795 1851 c-62 -26 -79 -112 -31 -159 l26 -27 998 -3 c737 -2 1004 1
1025 9 49 20 69 82 45 134 -26 57 18 55 -1055 54 -543 0 -997 -4 -1008 -8z"/>
<path d="M795 1291 c-60 -25 -79 -110 -35 -156 61 -65 170 -23 170 65 0 70
-70 117 -135 91z"/>
<path d="M1215 1291 c-64 -27 -81 -110 -32 -158 l27 -28 788 -3 c579 -2 794 1
815 9 30 13 57 55 57 89 0 33 -26 75 -55 88 -30 14 -1566 16 -1600 3z"/>
<path d="M805 731 c-64 -27 -81 -110 -32 -158 l27 -28 993 -3 c733 -2 999 1
1020 9 49 20 69 82 45 134 -26 57 18 55 -1050 54 -541 0 -992 -4 -1003 -8z"/>
</g>
</svg>
