<svg xmlns="http://www.w3.org/2000/svg" viewBox="0 0 141.95 153.09">
  <defs>
    <style>
      .cls-1, .cls-2, .cls-4 {
        fill: none;
        stroke: #7f3f98;
        stroke-miterlimit: 10;
      }

      .cls-1 {
        stroke-width: 5px;
      }

      .cls-2 {
        stroke-width: 3px;
      }

      .cls-3 {
        fill: #7f3f98;
      }

      .cls-4 {
        stroke-width: 4px;
      }
    </style>
  </defs>
  <g id="Layer_2" data-name="Layer 2">
    <g id="Layer_1-2" data-name="Layer 1">
      <path class="cls-1" d="M112,150.5H9A6.52,6.52,0,0,1,2.5,144V9A6.52,6.52,0,0,1,9,2.5h83.6a6.51,6.51,0,0,1,4.83,2.15l19.38,21.44a6.54,6.54,0,0,1,1.68,4.37V57.29"/>
      <polygon class="cls-2" points="116.95 26.26 96.28 26.26 96.28 4.14 116.95 26.26"/>
      <rect class="cls-1" x="94.45" y="105.36" width="45" height="15.14" rx="7.57"/>
      <rect class="cls-1" x="94.45" y="90.22" width="45" height="15.14" rx="7.57"/>
      <rect class="cls-1" x="94.45" y="120.31" width="45" height="15.14" rx="7.57"/>
      <rect class="cls-1" x="94.45" y="135.45" width="45" height="15.14" rx="7.57"/>
      <g>
        <path class="cls-3" d="M11.09,38V16.82h4.09V38Zm3.68-6.28V28.44h3.58a5.52,5.52,0,0,0,3.73-1.13,4.06,4.06,0,0,0,1.3-3.23,3.49,3.49,0,0,0-1.3-2.93,5.92,5.92,0,0,0-3.73-1H14.84V16.82h3.51c3,0,5.33.61,6.94,1.83a6.24,6.24,0,0,1,2.41,5.28,7.14,7.14,0,0,1-2.41,5.8c-1.61,1.35-3.93,2-6.94,2Z"/>
        <path class="cls-3" d="M29.48,38l7-21.22h5.25l7,21.22H44.31L39.21,21H38.9L33.8,38Zm3.39-4.49V30.23h12.2v3.32Z"/>
        <path class="cls-3" d="M57.63,31.4,49.48,16.82H54L59.24,27h.31l5.27-10.16h4.49L61.16,31.4ZM57.34,38V27.57h4.1V38Z"/>
        <path class="cls-3" d="M72.1,38V16.82h4.09V38Zm0-17.91V16.82H88.37v3.31Zm0,8.94V25.75H85.32v3.32Zm0,9V34.72H88.37V38Z"/>
        <path class="cls-3" d="M19.91,46V42.64h18V46Zm6.93,17.9V42.64h4.1V63.86Z"/>
        <path class="cls-3" d="M39.65,63.86l7-21.22h5.25L58.8,63.86H54.48l-5.1-17.08h-.31L44,63.86ZM43,59.38V56.06h12.2v3.32Z"/>
        <path class="cls-3" d="M60.16,63.86l8-11.3,5.9-9.92H79L70.73,54.5l-5.66,9.36Zm13.89,0L68.39,54.5,60.16,42.64h4.91L71,52.56l8,11.3Z"/>
      </g>
      <g>
        <line class="cls-4" x1="17.47" y1="83.41" x2="69.47" y2="83.41"/>
        <line class="cls-4" x1="31.47" y1="102.77" x2="83.47" y2="102.77"/>
        <line class="cls-4" x1="17.47" y1="117.88" x2="69.47" y2="117.88"/>
        <line class="cls-4" x1="31.47" y1="135.12" x2="83.47" y2="135.12"/>
        <path class="cls-3" d="M21.47,105.27c3.22,0,3.23-5,0-5s-3.22,5,0,5Z"/>
        <path class="cls-3" d="M21.47,137.62c3.22,0,3.23-5,0-5s-3.22,5,0,5Z"/>
        <path class="cls-3" d="M79.47,120.38c3.22,0,3.23-5,0-5s-3.22,5,0,5Z"/>
        <path class="cls-3" d="M79.47,85.91c3.22,0,3.23-5,0-5s-3.22,5,0,5Z"/>
      </g>
      <path class="cls-3" d="M118.5,67.39c3.22,0,3.22-5,0-5s-3.22,5,0,5Z"/>
      <path class="cls-3" d="M118.5,79.32c3.22,0,3.22-5,0-5s-3.22,5,0,5Z"/>
    </g>
  </g>
</svg>
